<svg width="278" height="278" viewBox="0 0 278 278" fill="none" xmlns="http://www.w3.org/2000/svg">
<rect x="0.504395" y="0.657959" width="277" height="277" fill="#111623"/>
<path fill-rule="evenodd" clip-rule="evenodd" d="M198.03 139.158C198.03 169.278 173.618 193.695 143.504 193.695C125.295 193.695 109.171 184.767 99.2679 171.049L123.265 157.194C128.23 162.763 135.457 166.27 143.504 166.27C158.475 166.27 170.611 154.132 170.611 139.158C170.611 124.184 158.475 112.046 143.504 112.046C135.457 112.046 128.23 115.553 123.265 121.122L99.2679 107.267C109.171 93.549 125.295 84.6211 143.504 84.6211C173.618 84.6211 198.03 109.038 198.03 139.158ZM99.2679 107.267C92.7939 116.236 88.979 127.251 88.979 139.158C88.979 151.065 92.7939 162.081 99.2679 171.049L88.5044 177.263C81.8377 181.112 73.5044 176.301 73.5044 168.603L73.5044 109.713C73.5044 102.015 81.8377 97.2039 88.5044 101.053L99.2679 107.267ZM123.265 121.122C118.994 125.914 116.398 132.233 116.398 139.158C116.398 146.083 118.994 152.402 123.265 157.194L139.504 147.818C146.171 143.969 146.171 134.347 139.504 130.498L123.265 121.122Z" fill="white"/>
<path fill-rule="evenodd" clip-rule="evenodd" d="M99.2679 107.267L88.5044 101.053C81.8377 97.2039 73.5044 102.015 73.5044 109.713L73.5044 168.603C73.5044 176.301 81.8377 181.112 88.5044 177.263L99.2679 171.049C92.7939 162.081 88.979 151.065 88.979 139.158C88.979 127.251 92.7939 116.236 99.2679 107.267ZM116.398 139.158C116.398 132.233 118.994 125.914 123.265 121.122L139.504 130.498C146.171 134.347 146.171 143.969 139.504 147.818L123.265 157.194C118.994 152.402 116.398 146.083 116.398 139.158Z" fill="white"/>
<path fill-rule="evenodd" clip-rule="evenodd" d="M99.2679 107.267L88.5044 101.053C81.8377 97.2039 73.5044 102.015 73.5044 109.713L73.5044 168.603C73.5044 176.301 81.8377 181.112 88.5044 177.263L99.2679 171.049C92.7939 162.081 88.979 151.065 88.979 139.158C88.979 127.251 92.7939 116.236 99.2679 107.267ZM116.398 139.158C116.398 132.233 118.994 125.914 123.265 121.122L139.504 130.498C146.171 134.347 146.171 143.969 139.504 147.818L123.265 157.194C118.994 152.402 116.398 146.083 116.398 139.158Z" fill="url(#paint0_linear_39_39)"/>
<defs>
<linearGradient id="paint0_linear_39_39" x1="58.8668" y1="96.322" x2="142.98" y2="187.004" gradientUnits="userSpaceOnUse">
<stop stop-color="#353DFF"/>
<stop offset="1" stop-color="#3DDCFF"/>
</linearGradient>
</defs>
</svg>
