<svg width="278" height="278" viewBox="0 0 278 278" fill="none" xmlns="http://www.w3.org/2000/svg">
<rect x="0.504395" y="0.437012" width="277" height="277" fill="#111623"/>
<path fill-rule="evenodd" clip-rule="evenodd" d="M201.504 154.758C214.838 147.06 214.838 127.815 201.504 120.117L134.004 81.1454C120.671 73.4474 104.004 83.0699 104.004 98.4659V109.436L86.5044 99.3319C79.8377 95.4829 71.5044 100.294 71.5044 107.992L71.5044 166.882C71.5044 174.58 79.8377 179.391 86.5044 175.542L104.004 165.438V176.408C104.004 191.804 120.671 201.427 134.004 193.729L201.504 154.758ZM104.004 109.436L104.004 165.438L137.504 146.097C144.171 142.248 144.171 132.626 137.504 128.777L104.004 109.436Z" fill="#FF6B78"/>
<path fill-rule="evenodd" clip-rule="evenodd" d="M201.504 154.758C214.838 147.06 214.838 127.815 201.504 120.117L134.004 81.1454C120.671 73.4474 104.004 83.0699 104.004 98.4659V109.436L86.5044 99.3319C79.8377 95.4829 71.5044 100.294 71.5044 107.992L71.5044 166.882C71.5044 174.58 79.8377 179.391 86.5044 175.542L104.004 165.438V176.408C104.004 191.804 120.671 201.427 134.004 193.729L201.504 154.758ZM104.004 109.436L104.004 165.438L137.504 146.097C144.171 142.248 144.171 132.626 137.504 128.777L104.004 109.436Z" fill="url(#paint0_linear_39_7)"/>
<path fill-rule="evenodd" clip-rule="evenodd" d="M201.504 120.117C214.838 127.815 214.838 147.06 201.504 154.758L134.004 193.729C120.671 201.427 104.004 191.804 104.004 176.408V165.438L137.504 146.097C144.171 142.248 144.171 132.626 137.504 128.777L104.004 109.436V98.4659C104.004 83.0699 120.671 73.4474 134.004 81.1454L201.504 120.117Z" fill="#FF6B78"/>
<path fill-rule="evenodd" clip-rule="evenodd" d="M201.504 120.117C214.838 127.815 214.838 147.06 201.504 154.758L134.004 193.729C120.671 201.427 104.004 191.804 104.004 176.408V165.438L137.504 146.097C144.171 142.248 144.171 132.626 137.504 128.777L104.004 109.436V98.4659C104.004 83.0699 120.671 73.4474 134.004 81.1454L201.504 120.117Z" fill="white"/>
<defs>
<linearGradient id="paint0_linear_39_7" x1="48.3425" y1="91.0947" x2="138.504" y2="196.438" gradientUnits="userSpaceOnUse">
<stop stop-color="#353DFF"/>
<stop offset="1" stop-color="#3DDCFF"/>
</linearGradient>
</defs>
</svg>
